<svg width="32" height="26" viewBox="0 0 32 26" fill="none" xmlns="http://www.w3.org/2000/svg">
<path d="M14.8597 0.33173C15.9239 1.08722 17.0462 1.80589 18.2072 2.41397C18.9423 2.81932 19.7163 3.18773 20.4901 3.51939C21.98 3.46411 23.4893 3.31686 24.9598 3.11417C26.7979 2.8562 28.6361 2.50595 30.4355 2.04529L31.1706 1.86115L31.4222 2.56136C31.8672 3.85121 32.0608 5.17799 31.9834 6.52312C31.9257 7.78637 31.6192 9.01306 31.1029 10.1674L31.1049 10.1858L29.4294 13.6542L25.9464 12.2905C26.2367 13.0276 26.4883 13.7832 26.7205 14.5387C27.8233 18.224 28.3651 22.0752 28.307 26H22.1348C22.1348 25.005 21.8833 24.3048 21.3997 23.881C20.8387 23.3836 20.0648 23.4386 20.0065 23.4386H8.22311C8.16444 23.4386 7.21672 23.4021 6.57845 23.9547C6.17218 24.3233 5.95935 24.913 5.95935 25.6868V25.9816H4.58763C4.58761 25.9877 4.58741 25.9939 4.58741 26H0C0 23.365 0.503165 20.8037 1.48995 18.4082C1.8769 17.4869 2.3218 16.6024 2.84418 15.7364L3.05703 15.3863L3.48273 15.3494C4.31473 15.2941 5.63056 15.1284 7.1204 14.6124C9.28743 13.8753 11.0481 12.6959 12.3638 11.1112C13.3893 9.87664 14.1052 8.45785 14.4921 6.87322L12.7509 1.0503L14.3953 0L14.8597 0.33173Z" fill="#1E1E1E"/>
</svg>
